<?xml version="1.0" standalone="no"?>
<!DOCTYPE svg PUBLIC "-//W3C//DTD SVG 20010904//EN"
 "http://www.w3.org/TR/2001/REC-SVG-20010904/DTD/svg10.dtd">
<svg version="1.0" xmlns="http://www.w3.org/2000/svg"
 width="1024.000000pt" height="1024.000000pt" viewBox="0 0 1024.000000 1024.000000"
 preserveAspectRatio="xMidYMid meet">

<g transform="translate(0.000000,1024.000000) scale(0.100000,-0.100000)"
fill="#000000" stroke="none">
<path d="M4354 7941 c-54 -25 -108 -82 -122 -130 -16 -50 -17 -501 -2 -501 6
0 30 10 52 21 166 85 342 88 456 9 23 -17 44 -30 46 -30 2 0 13 42 25 94 49
213 169 317 350 304 146 -11 231 -100 296 -311 14 -48 28 -87 29 -87 2 0 30
16 62 35 72 44 112 55 192 55 66 0 150 -24 234 -66 l50 -25 -4 253 c-3 289 -8
307 -87 363 l-43 30 -746 2 c-710 3 -749 2 -788 -16z"/>
<path d="M3959 7691 c-182 -80 -403 -221 -579 -367 -277 -231 -520 -551 -692
-911 -58 -120 -121 -304 -109 -316 4 -4 45 -7 91 -5 l83 3 27 85 c63 204 280
567 457 765 201 225 432 406 685 535 l127 65 3 88 c2 49 0 91 -3 92 -3 2 -43
-13 -90 -34z"/>
<path d="M6178 7645 c-1 -41 -2 -82 -2 -91 -1 -12 23 -27 76 -49 187 -79 456
-265 622 -431 230 -229 483 -615 590 -901 15 -40 31 -74 34 -76 4 -2 42 -1 84
2 l77 6 -34 105 c-71 213 -249 529 -427 758 -190 244 -462 478 -723 623 -102
57 -259 129 -279 129 -13 0 -16 -14 -18 -75z"/>
<path d="M5022 7550 c-48 -34 -81 -89 -112 -182 -31 -93 -25 -192 15 -266 47
-87 48 -87 205 -87 105 0 141 3 154 14 10 8 33 45 52 83 27 54 34 79 34 125 0
66 -19 143 -50 207 -59 122 -204 174 -298 106z m235 -112 c14 -17 24 -104 17
-135 -8 -31 -44 -28 -61 7 -20 38 -17 117 5 129 23 14 28 13 39 -1z m-223 -55
c-1 -81 -64 -132 -64 -53 0 52 25 102 48 98 13 -3 17 -14 16 -45z"/>
<path d="M4500 7263 c-60 -8 -114 -29 -260 -98 -262 -124 -393 -159 -608 -159
l-143 -1 6 -24 c15 -60 82 -113 180 -144 57 -17 93 -21 195 -21 147 2 280 32
470 107 154 61 163 63 215 42 52 -19 99 -70 144 -154 17 -32 38 -64 46 -71 26
-22 17 -48 -28 -79 -56 -38 -142 -132 -168 -184 -25 -47 -43 -216 -36 -320 8
-125 104 -273 246 -380 80 -60 257 -158 393 -218 253 -112 390 -215 450 -337
28 -57 33 -77 33 -137 -1 -127 -66 -220 -213 -302 -68 -38 -90 -70 -75 -112 9
-28 181 -120 224 -121 66 0 209 127 286 257 88 148 118 287 89 421 -22 106
-53 165 -140 269 -99 121 -199 188 -439 297 -286 131 -349 163 -415 216 -125
102 -168 191 -160 332 4 71 8 83 44 134 21 30 44 63 51 72 8 13 8 29 -3 67 -7
28 -18 104 -24 170 -16 187 -52 306 -115 390 -45 58 -161 100 -245 88z m80
-1168 c0 -5 -5 -3 -10 5 -5 8 -10 20 -10 25 0 6 5 3 10 -5 5 -8 10 -19 10 -25z
m30 -57 c20 -42 20 -42 1 -18 -19 23 -34 60 -25 60 2 0 13 -19 24 -42z m1240
-687 c25 -52 55 -159 47 -168 -2 -2 -17 31 -32 74 -15 43 -39 100 -53 128 -18
37 -20 46 -8 35 10 -7 30 -39 46 -69z"/>
<path d="M5617 7245 c-115 -40 -185 -184 -212 -432 -8 -76 -20 -160 -25 -186
-13 -62 3 -98 71 -162 57 -53 148 -98 247 -121 133 -32 328 -4 439 62 l48 29
-75 7 c-117 12 -237 51 -391 129 -235 117 -247 130 -190 199 15 19 35 49 44
65 8 17 40 54 70 83 72 67 91 67 253 2 200 -81 293 -101 464 -103 126 -2 155
1 220 21 41 13 91 34 111 48 37 25 83 96 77 116 -3 9 -39 12 -129 9 -238 -5
-400 33 -626 148 -65 34 -145 70 -177 81 -69 23 -163 26 -219 5z"/>
<path d="M5005 6911 c-35 -8 -35 -5 -15 -211 7 -78 18 -145 27 -158 13 -22 19
-23 121 -20 l107 3 12 155 c7 85 15 171 19 191 l6 36 -47 7 c-58 7 -189 6
-230 -3z"/>
<path d="M4393 6850 c-61 -27 -143 -58 -181 -69 -158 -47 -395 -65 -499 -37
-47 13 -53 12 -53 -1 0 -39 175 -160 271 -188 44 -13 95 -19 164 -19 86 1 112
5 190 32 49 18 137 58 195 90 58 32 119 64 137 71 48 19 57 34 40 68 -21 39
-105 102 -137 102 -8 0 -65 -22 -127 -49z"/>
<path d="M5664 6863 c-16 -21 -39 -51 -53 -66 l-26 -29 30 -24 c46 -38 333
-178 393 -192 120 -27 272 -8 387 49 59 29 185 132 175 142 -3 3 -23 2 -45 -3
-22 -5 -98 -10 -170 -10 -187 0 -340 36 -534 126 -52 24 -102 44 -112 44 -10
0 -30 -17 -45 -37z"/>
<path d="M4380 6504 c-103 -33 -205 -52 -305 -57 l-50 -2 71 -47 c73 -48 151
-74 238 -80 l48 -3 13 41 c6 22 31 68 55 101 23 34 41 65 39 71 -2 5 -49 -5
-109 -24z"/>
<path d="M5035 6358 c4 -35 10 -112 13 -173 l7 -109 84 -44 c45 -24 85 -41 87
-39 3 3 8 97 11 209 l6 205 -48 6 c-26 4 -75 7 -107 7 l-60 0 7 -62z"/>
<path d="M5367 6276 c-7 -16 -11 -335 -5 -340 1 -2 60 -30 129 -63 165 -79
253 -136 342 -225 112 -111 201 -254 232 -375 42 -163 -9 -436 -108 -570 -45
-61 -168 -180 -229 -222 -27 -17 -48 -34 -48 -37 0 -2 18 -28 41 -56 115 -146
155 -332 114 -528 -28 -134 -125 -284 -231 -359 -64 -46 -67 -50 -43 -86 51
-75 80 -154 86 -228 7 -95 -12 -227 -42 -294 -31 -69 -87 -143 -105 -140 -27
4 -24 72 5 135 58 124 68 219 36 335 -21 77 -75 164 -123 200 -46 35 -314 184
-429 240 -102 49 -170 110 -210 189 -59 115 -13 266 105 348 33 22 46 38 46
55 0 20 -13 30 -86 65 -48 22 -92 40 -98 40 -19 0 -112 -86 -151 -141 -96
-130 -98 -333 -6 -476 59 -92 202 -200 331 -251 297 -118 489 -247 539 -362
40 -94 38 -140 -14 -307 -3 -7 -9 -13 -14 -13 -5 0 -11 48 -13 108 -3 85 -8
116 -26 148 -24 48 -70 104 -83 104 -5 0 -9 -66 -9 -147 0 -82 -5 -253 -10
-382 -6 -129 -9 -236 -7 -237 1 -1 138 0 303 4 l301 7 41 29 c27 18 51 47 68
81 l25 53 6 889 6 888 816 0 c650 0 824 3 853 13 46 16 115 93 123 136 3 17 5
315 3 662 l-3 630 -28 43 c-55 83 -1 79 -940 72 l-827 -6 0 120 c0 66 -3 143
-6 172 l-7 52 -41 -22 c-36 -19 -56 -22 -161 -22 -106 0 -137 4 -268 38 -82
21 -154 40 -161 43 -8 3 -16 -2 -19 -10z m-700 -2083 c-3 -10 -20 -52 -38 -93
-26 -61 -32 -89 -33 -152 -1 -48 -5 -73 -10 -68 -6 6 -9 47 -9 92 1 66 7 97
28 148 15 36 32 71 37 78 15 18 31 15 25 -5z"/>
<path d="M4219 6071 l3 -161 -843 0 c-834 0 -843 0 -886 -21 -23 -11 -53 -35
-65 -52 l-23 -32 -3 -650 -2 -651 27 -54 c22 -43 38 -60 73 -78 l45 -22 835 0
835 1 5 -908 c6 -1000 2 -941 66 -992 46 -36 90 -41 389 -43 l290 -3 -3 365
c-1 201 -5 376 -8 389 l-5 24 -30 -29 c-50 -48 -78 -118 -91 -231 -7 -57 -16
-103 -21 -103 -4 0 -17 21 -29 48 -31 68 -32 200 -1 258 33 62 71 103 130 141
67 42 68 62 7 104 -42 29 -48 30 -71 18 -14 -8 -43 -33 -64 -58 -115 -130
-133 -299 -49 -444 22 -38 40 -74 41 -80 5 -45 -17 -65 -52 -47 -24 14 -63 75
-89 141 -62 157 -34 370 65 497 19 25 35 48 35 51 -1 3 -28 26 -62 51 -126 94
-221 231 -247 358 -39 188 26 425 140 509 27 21 49 40 49 43 0 3 -35 28 -78
55 -42 28 -115 88 -162 135 -71 71 -93 101 -132 180 -57 115 -72 184 -71 315
1 179 62 356 159 464 54 60 149 135 218 171 25 14 46 28 46 32 0 4 -19 25 -43
47 -27 25 -62 76 -94 138 -44 85 -57 122 -79 239 -3 18 -13 22 -61 27 -32 3
-67 8 -78 12 -20 6 -20 2 -16 -154z"/>
<path d="M4650 5655 c-7 -9 -42 -33 -78 -55 -160 -95 -250 -233 -282 -430 -11
-67 -10 -86 8 -174 27 -130 68 -211 149 -297 114 -120 226 -184 539 -304 225
-87 271 -109 367 -172 120 -79 175 -175 165 -283 -7 -68 -59 -143 -142 -204
-59 -43 -86 -82 -71 -105 2 -5 37 -28 76 -51 83 -49 86 -48 175 33 160 146
220 369 150 562 -27 74 -36 87 -120 170 -83 81 -106 97 -231 161 -77 40 -196
96 -265 125 -162 68 -248 119 -332 197 -93 88 -123 150 -123 257 1 95 15 141
65 215 51 74 86 106 161 144 83 42 89 65 24 103 -25 16 -78 49 -118 75 -77 51
-97 57 -117 33z m-172 -252 c-86 -141 -115 -307 -79 -447 12 -44 19 -81 18
-83 -10 -9 -57 101 -65 152 -20 127 31 306 114 404 53 61 58 50 12 -26z"/>
<path d="M5044 5135 c3 -184 9 -342 12 -350 4 -9 42 -34 84 -55 l78 -39 7 82
c3 45 5 201 3 346 l-3 264 -85 43 c-47 24 -89 44 -94 44 -6 0 -6 -135 -2 -335z"/>
<path d="M4870 5295 c-109 -91 -146 -195 -100 -284 19 -39 135 -151 156 -151
12 0 7 449 -6 463 -4 4 -26 -8 -50 -28z"/>
<path d="M5346 5229 c-9 -94 -7 -379 3 -379 18 0 123 104 142 141 23 46 25
106 4 157 -17 39 -111 142 -131 142 -6 0 -14 -26 -18 -61z"/>
<path d="M5047 4233 c-3 -5 -1 -69 4 -143 4 -74 8 -181 8 -237 l1 -101 28 -10
c15 -5 48 -25 73 -44 l46 -36 6 179 c4 98 4 212 0 253 l-6 75 -67 36 c-69 36
-86 41 -93 28z"/>
<path d="M2636 4145 c16 -77 143 -311 258 -476 110 -157 189 -252 326 -390
138 -139 220 -205 395 -323 108 -72 359 -202 413 -212 l32 -6 0 83 c0 46 -4
89 -8 95 -4 5 -36 21 -72 33 -185 67 -407 221 -633 440 -181 175 -341 392
-497 671 -64 117 -58 111 -144 113 l-77 2 7 -30z"/>
<path d="M7370 4058 c-98 -174 -197 -321 -307 -458 -222 -276 -488 -493 -765
-628 l-118 -57 0 -46 c0 -25 -3 -67 -6 -93 -5 -37 -4 -46 8 -46 23 0 219 99
344 173 224 133 416 296 601 511 187 217 410 562 472 729 l11 27 -89 0 -88 0
-63 -112z"/>
<path d="M4907 4082 c-9 -10 -23 -35 -32 -56 -14 -34 -14 -43 -1 -89 18 -63
64 -133 77 -120 6 6 7 65 3 146 -7 142 -13 157 -47 119z"/>
<path d="M5327 4093 c-4 -3 -7 -67 -7 -140 0 -153 5 -160 58 -73 35 59 39 93
18 143 -15 36 -59 81 -69 70z"/>
<path d="M5040 3313 c0 -5 5 -36 10 -69 6 -34 14 -227 19 -430 5 -203 12 -376
15 -385 7 -16 55 -33 65 -23 14 14 60 787 48 818 -5 13 -134 96 -150 96 -4 0
-7 -3 -7 -7z"/>
<path d="M5067 2279 c-22 -13 -47 -61 -47 -91 0 -55 69 -104 121 -86 37 13 59
49 59 96 0 68 -75 114 -133 81z"/>
</g>
</svg>
